<svg width="35" height="35" viewBox="0 0 35 35" fill="none" xmlns="http://www.w3.org/2000/svg">
<path opacity="0.4" d="M27.8232 8.34568H27.2528L22.4332 3.52605C22.0482 3.14105 21.4208 3.14105 21.0215 3.52605C20.6365 3.91105 20.6365 4.53846 21.0215 4.93772L24.4295 8.34568H10.5695L13.9775 4.93772C14.3625 4.55272 14.3625 3.92531 13.9775 3.52605C13.5925 3.14105 12.965 3.14105 12.5658 3.52605L7.76042 8.34568H7.19005C5.90672 8.34568 3.24023 8.34568 3.24023 11.9961C3.24023 13.3792 3.52542 14.2918 4.12431 14.8907C4.46653 15.2472 4.88005 15.4325 5.32209 15.5323C5.7356 15.6322 6.17764 15.6464 6.60542 15.6464H28.3936C28.8356 15.6464 29.2491 15.6179 29.6484 15.5323C30.8462 15.2472 31.7588 14.3916 31.7588 11.9961C31.7588 8.34568 29.0923 8.34568 27.8232 8.34568Z" fill="#3ECC75"/>
<path d="M28.4223 15.6459H6.6056C6.19208 15.6459 5.73578 15.6317 5.32227 15.5176L7.11893 26.4829C7.53245 28.9355 8.6019 31.7589 13.3502 31.7589H21.3497C26.155 31.7589 27.0106 29.3491 27.5239 26.6541L29.6771 15.5176C29.2778 15.6174 28.85 15.6459 28.4223 15.6459ZM21.6063 21.8487L16.9721 26.1265C16.7725 26.3118 16.5015 26.4117 16.2449 26.4117C15.9739 26.4117 15.703 26.3118 15.4891 26.098L13.3502 23.9591C12.9367 23.5455 12.9367 22.8611 13.3502 22.4476C13.7637 22.0341 14.4482 22.0341 14.8617 22.4476L16.2734 23.8592L20.1519 20.2802C20.5797 19.8809 21.2641 19.9094 21.6634 20.3372C22.0769 20.7792 22.0484 21.4494 21.6063 21.8487Z" fill="#3ECC75"/>
</svg>
