<svg width="35" height="35" viewBox="0 0 35 35" fill="none" xmlns="http://www.w3.org/2000/svg">
<path opacity="0.4" d="M31.7588 13.2217V23.8591C31.7588 27.1245 29.1065 29.7624 25.8412 29.7624H9.15783C5.89246 29.7624 3.24023 27.1245 3.24023 23.8591V13.2217H31.7588Z" fill="#374957"/>
<path d="M31.7588 11.1406V13.2225H3.24023V11.1406C3.24023 7.87527 5.89246 5.2373 9.15783 5.2373H25.8412C29.1065 5.2373 31.7588 7.87527 31.7588 11.1406Z" fill="#374957"/>
<path d="M11.7963 24.9856H8.94444C8.35981 24.9856 7.875 24.5008 7.875 23.9161C7.875 23.3315 8.35981 22.8467 8.94444 22.8467H11.7963C12.3809 22.8467 12.8657 23.3315 12.8657 23.9161C12.8657 24.5008 12.3809 24.9856 11.7963 24.9856Z" fill="#374957"/>
<path d="M21.0642 24.9856H15.3605C14.7758 24.9856 14.291 24.5008 14.291 23.9161C14.291 23.3315 14.7758 22.8467 15.3605 22.8467H21.0642C21.6488 22.8467 22.1336 23.3315 22.1336 23.9161C22.1336 24.5008 21.6488 24.9856 21.0642 24.9856Z" fill="#374957"/>
</svg>
