<svg width="24" height="24" viewBox="0 0 24 24" fill="none" xmlns="http://www.w3.org/2000/svg">
<path d="M11.2201 2.00513H9.27213C4.40211 2.00513 2.4541 3.95313 2.4541 8.82315V14.6672C2.4541 19.5372 4.40211 21.4852 9.27213 21.4852H15.1161C19.9862 21.4852 21.9342 19.5372 21.9342 14.6672V12.7192" stroke="#A3A3A3" stroke-width="1.5" stroke-linecap="round" stroke-linejoin="round"/>
<path d="M16.1289 2.99886L8.45375 10.674C8.16155 10.9662 7.86935 11.5409 7.81091 11.9597L7.39209 14.8914C7.23625 15.9531 7.98623 16.6934 9.04789 16.5473L11.9796 16.1284C12.3887 16.07 12.9634 15.7778 13.2653 15.4856L20.9405 7.81044C22.2651 6.4858 22.8885 4.94687 20.9405 2.99886C18.9925 1.05086 17.4535 1.67422 16.1289 2.99886Z" stroke="#A3A3A3" stroke-width="1.5" stroke-miterlimit="10" stroke-linecap="round" stroke-linejoin="round"/>
<path d="M15.0283 4.09961C15.6809 6.42748 17.5023 8.24886 19.8399 8.91119" stroke="#A3A3A3" stroke-width="1.5" stroke-miterlimit="10" stroke-linecap="round" stroke-linejoin="round"/>
</svg>
