<svg width="35" height="35" viewBox="0 0 35 35" fill="none" xmlns="http://www.w3.org/2000/svg">
<path opacity="0.4" d="M23.4741 3.24023H11.5249C6.33449 3.24023 3.24023 6.33449 3.24023 11.5249V23.4599C3.24023 28.6645 6.33449 31.7588 11.5249 31.7588H23.4599C28.6502 31.7588 31.7445 28.6645 31.7445 23.4741V11.5249C31.7588 6.33449 28.6645 3.24023 23.4741 3.24023Z" fill="#374957"/>
<path d="M12.9658 14.2917C11.7537 14.2917 10.5417 13.8354 9.61483 12.9085C9.20131 12.495 9.20131 11.8106 9.61483 11.3971C10.0283 10.9835 10.7128 10.9835 11.1263 11.3971C12.1387 12.4095 13.7928 12.4095 14.8052 11.3971C15.2187 10.9835 15.9032 10.9835 16.3167 11.3971C16.7302 11.8106 16.7302 12.495 16.3167 12.9085C15.3898 13.8211 14.1778 14.2917 12.9658 14.2917Z" fill="#374957"/>
<path d="M22.0341 14.2917C20.8221 14.2917 19.61 13.8354 18.6832 12.9085C18.2697 12.495 18.2697 11.8106 18.6832 11.3971C19.0967 10.9835 19.7811 10.9835 20.1947 11.3971C21.2071 12.4095 22.8611 12.4095 23.8736 11.3971C24.2871 10.9835 24.9715 10.9835 25.385 11.3971C25.7986 11.8106 25.7986 12.495 25.385 12.9085C24.4582 13.8211 23.2461 14.2917 22.0341 14.2917Z" fill="#374957"/>
<path d="M22.6333 18.3838H12.3666C11.3684 18.3838 10.5557 19.1966 10.5557 20.209C10.5557 24.0447 13.6784 27.1675 17.5142 27.1675C21.3499 27.1675 24.4727 24.0447 24.4727 20.209C24.4584 19.2108 23.6314 18.3838 22.6333 18.3838Z" fill="#374957"/>
</svg>
