<svg width="45" height="45" viewBox="0 0 45 45" fill="none" xmlns="http://www.w3.org/2000/svg">
<path d="M40.5396 17.7246C40.8252 17.4976 41.25 17.71 41.25 18.0688V33.0469C41.25 34.9878 39.6753 36.5625 37.7344 36.5625H7.26562C5.32471 36.5625 3.75 34.9878 3.75 33.0469V18.0762C3.75 17.71 4.16748 17.5049 4.46045 17.7319C6.10107 19.0063 8.27637 20.625 15.7471 26.0522C17.2925 27.1802 19.8999 29.5532 22.5 29.5386C25.1147 29.5605 27.7734 27.1362 29.2603 26.0522C36.731 20.625 38.8989 18.999 40.5396 17.7246ZM22.5 27.1875C24.1992 27.2168 26.6455 25.0488 27.876 24.1553C37.5952 17.1021 38.335 16.4868 40.5762 14.729C41.001 14.3994 41.25 13.8867 41.25 13.3447V11.9531C41.25 10.0122 39.6753 8.4375 37.7344 8.4375H7.26562C5.32471 8.4375 3.75 10.0122 3.75 11.9531V13.3447C3.75 13.8867 3.99902 14.3921 4.42383 14.729C6.66504 16.4795 7.40479 17.1021 17.124 24.1553C18.3545 25.0488 20.8008 27.2168 22.5 27.1875Z" fill="#8ED457"/>
</svg>
