<svg width="28" height="28" viewBox="0 0 28 28" fill="none" xmlns="http://www.w3.org/2000/svg">
<g clip-path="url(#clip0_638_2143)">
<path d="M19.383 8.72587L11.3864 16.8077L2.29151 11.1194C1.99998 10.937 1.76734 10.6742 1.62154 10.3627C1.47574 10.0513 1.42299 9.7043 1.46962 9.36356C1.51625 9.02282 1.66028 8.70279 1.88441 8.44194C2.10854 8.18109 2.40322 7.9905 2.73305 7.89309L24.328 1.56901C24.6352 1.48031 24.9606 1.47599 25.27 1.5565C25.5795 1.637 25.8615 1.79936 26.0865 2.02652C26.3115 2.25367 26.4712 2.53724 26.5488 2.84742C26.6263 3.1576 26.6189 3.48295 26.5273 3.78928L20.139 25.3703C20.0425 25.6996 19.8526 25.9938 19.5923 26.2174C19.3319 26.4409 19.0124 26.5843 18.6723 26.6299C18.3322 26.6756 17.9862 26.6217 17.6761 26.4748C17.366 26.3279 17.1052 26.0942 16.9252 25.802L11.3822 16.8091" fill="white"/>
<path d="M19.383 8.72587L11.3864 16.8077L2.29151 11.1194C1.99998 10.937 1.76734 10.6742 1.62154 10.3627C1.47574 10.0513 1.42299 9.7043 1.46962 9.36356C1.51625 9.02282 1.66028 8.70279 1.88441 8.44194C2.10854 8.18109 2.40322 7.9905 2.73305 7.89309L24.328 1.56901C24.6352 1.48031 24.9606 1.47599 25.27 1.5565C25.5795 1.637 25.8615 1.79936 26.0865 2.02652C26.3115 2.25367 26.4712 2.53724 26.5488 2.84742C26.6263 3.1576 26.6189 3.48295 26.5273 3.78928L20.139 25.3703C20.0425 25.6995 19.8526 25.9938 19.5923 26.2174C19.3319 26.4409 19.0124 26.5843 18.6723 26.6299C18.3322 26.6756 17.9862 26.6217 17.6761 26.4748C17.366 26.3279 17.1052 26.0942 16.9252 25.802L11.3822 16.8091" stroke="#8ED457" stroke-width="1.5" stroke-miterlimit="10" stroke-linecap="round" stroke-linejoin="round"/>
</g>
<defs>
<clipPath id="clip0_638_2143">
<rect width="27.2721" height="27.2721" fill="white" transform="translate(0.398438 0.428101)"/>
</clipPath>
</defs>
</svg>
