<svg width="36" height="36" viewBox="0 0 36 36" fill="none" xmlns="http://www.w3.org/2000/svg">
<path d="M18.0033 10.31C13.7468 10.31 10.3134 13.7434 10.3134 18C10.3134 22.2565 13.7468 25.6899 18.0033 25.6899C22.2599 25.6899 25.6933 22.2565 25.6933 18C25.6933 13.7434 22.2599 10.31 18.0033 10.31ZM18.0033 22.9994C15.2527 22.9994 13.0039 20.7573 13.0039 18C13.0039 15.2426 15.246 13.0005 18.0033 13.0005C20.7607 13.0005 23.0028 15.2426 23.0028 18C23.0028 20.7573 20.754 22.9994 18.0033 22.9994ZM27.8015 9.99549C27.8015 10.9927 26.9983 11.7891 26.0078 11.7891C25.0106 11.7891 24.2142 10.986 24.2142 9.99549C24.2142 9.00497 25.0173 8.20185 26.0078 8.20185C26.9983 8.20185 27.8015 9.00497 27.8015 9.99549ZM32.8946 11.8159C32.7808 9.41322 32.232 7.28495 30.4718 5.53146C28.7184 3.77798 26.5901 3.22917 24.1874 3.10871C21.7111 2.96816 14.2889 2.96816 11.8126 3.10871C9.41662 3.22248 7.28834 3.77128 5.52817 5.52477C3.76799 7.27825 3.22588 9.40653 3.10541 11.8092C2.96486 14.2855 2.96486 21.7077 3.10541 24.184C3.21919 26.5867 3.76799 28.715 5.52817 30.4684C7.28834 32.2219 9.40993 32.7707 11.8126 32.8912C14.2889 33.0317 21.7111 33.0317 24.1874 32.8912C26.5901 32.7774 28.7184 32.2286 30.4718 30.4684C32.2253 28.715 32.7741 26.5867 32.8946 24.184C33.0351 21.7077 33.0351 14.2922 32.8946 11.8159ZM29.6955 26.841C29.1735 28.1528 28.1629 29.1634 26.8444 29.6921C24.8701 30.4751 20.1852 30.2944 18.0033 30.2944C15.8215 30.2944 11.1299 30.4684 9.1623 29.6921C7.85053 29.1701 6.83993 28.1595 6.31121 26.841C5.52817 24.8667 5.70887 20.1818 5.70887 18C5.70887 15.8181 5.53486 11.1266 6.31121 9.1589C6.83324 7.84713 7.84384 6.83654 9.1623 6.30781C11.1366 5.52477 15.8215 5.70547 18.0033 5.70547C20.1852 5.70547 24.8767 5.53146 26.8444 6.30781C28.1562 6.82984 29.1668 7.84044 29.6955 9.1589C30.4785 11.1332 30.2978 15.8181 30.2978 18C30.2978 20.1818 30.4785 24.8733 29.6955 26.841Z" fill="#374957"/>
</svg>
