<svg width="36" height="35" viewBox="0 0 36 35" fill="none" xmlns="http://www.w3.org/2000/svg">
<path d="M30.1991 3.02295H5.79712C4.67899 3.02295 3.77051 3.94414 3.77051 5.07498V29.4325C3.77051 30.5633 4.67899 31.4845 5.79712 31.4845H30.1991C31.3172 31.4845 32.232 30.5633 32.232 29.4325V5.07498C32.232 3.94414 31.3172 3.02295 30.1991 3.02295ZM12.3725 27.4186H8.15409V13.8358H12.3789V27.4186H12.3725ZM10.2633 11.9807C8.9101 11.9807 7.81738 10.8816 7.81738 9.5348C7.81738 8.18796 8.9101 7.08888 10.2633 7.08888C11.6101 7.08888 12.7092 8.18796 12.7092 9.5348C12.7092 10.888 11.6165 11.9807 10.2633 11.9807ZM28.1852 27.4186H23.9668V20.8114C23.9668 19.2359 23.935 17.2092 21.775 17.2092C19.5768 17.2092 19.2401 18.9246 19.2401 20.6971V27.4186H15.0217V13.8358H19.0686V15.6909H19.1258C19.6912 14.6236 21.0698 13.4991 23.1218 13.4991C27.391 13.4991 28.1852 16.3135 28.1852 19.9728V27.4186Z" fill="#374957"/>
</svg>
