<svg width="45" height="46" viewBox="0 0 45 46" fill="none" xmlns="http://www.w3.org/2000/svg">
<path d="M21.4923 40.7434C10.8503 25.3157 8.875 23.7324 8.875 18.0625C8.875 10.296 15.171 4 22.9375 4C30.704 4 37 10.296 37 18.0625C37 23.7324 35.0247 25.3157 24.3827 40.7434C23.6843 41.7522 22.1906 41.7522 21.4923 40.7434ZM22.9375 23.9219C26.1736 23.9219 28.7969 21.2986 28.7969 18.0625C28.7969 14.8264 26.1736 12.2031 22.9375 12.2031C19.7014 12.2031 17.0781 14.8264 17.0781 18.0625C17.0781 21.2986 19.7014 23.9219 22.9375 23.9219Z" fill="#8ED457"/>
</svg>
