<svg width="45" height="45" viewBox="0 0 45 45" fill="none" xmlns="http://www.w3.org/2000/svg">
<path d="M40.1806 30.2488L31.9773 26.7331C31.6269 26.5838 31.2374 26.5523 30.8675 26.6435C30.4977 26.7346 30.1674 26.9434 29.9265 27.2385L26.2936 31.6771C20.5921 28.9889 16.0038 24.4005 13.3156 18.6991L17.7541 15.0662C18.0498 14.8257 18.2591 14.4954 18.3503 14.1254C18.4415 13.7554 18.4096 13.3657 18.2595 13.0154L14.7438 4.8121C14.5791 4.43446 14.2878 4.12613 13.9201 3.94028C13.5524 3.75443 13.1314 3.7027 12.7296 3.79401L5.11233 5.55186C4.72499 5.6413 4.37941 5.85939 4.13199 6.17053C3.88457 6.48167 3.74991 6.86749 3.75 7.26502C3.75 26.052 18.9773 41.25 37.735 41.25C38.1326 41.2502 38.5186 41.1157 38.8299 40.8682C39.1412 40.6208 39.3594 40.2751 39.4489 39.8877L41.2067 32.2703C41.2974 31.8666 41.2446 31.4439 41.0573 31.075C40.87 30.706 40.56 30.4139 40.1806 30.2488Z" fill="#8ED457"/>
</svg>
