<svg width="35" height="35" viewBox="0 0 35 35" fill="none" xmlns="http://www.w3.org/2000/svg">
<path d="M31.7587 8.94394V12.3947C31.7587 14.6476 30.3328 16.0736 28.0798 16.0736H23.2031V6.10635C23.2031 4.52357 24.5007 3.24023 26.0835 3.24023C27.6378 3.25449 29.0637 3.8819 30.0903 4.90857C31.117 5.94949 31.7587 7.37542 31.7587 8.94394Z" fill="#374957"/>
<path opacity="0.4" d="M3.24023 10.3699V30.3328C3.24023 31.5163 4.58061 32.1865 5.52172 31.4736L7.96005 29.6484C8.53042 29.2206 9.32894 29.2776 9.84228 29.791L12.2093 32.1723C12.7654 32.7284 13.678 32.7284 14.2341 32.1723L16.6297 29.7767C17.1288 29.2776 17.9273 29.2206 18.4834 29.6484L20.9217 31.4736C21.8628 32.1723 23.2032 31.5021 23.2032 30.3328V6.09209C23.2032 4.52357 24.4865 3.24023 26.055 3.24023H10.3699H8.94394C4.66616 3.24023 3.24023 5.79264 3.24023 8.94394V10.3699Z" fill="#374957"/>
<path d="M17.5 14.2912H8.94444C8.35981 14.2912 7.875 13.8064 7.875 13.2218C7.875 12.6372 8.35981 12.1523 8.94444 12.1523H17.5C18.0846 12.1523 18.5694 12.6372 18.5694 13.2218C18.5694 13.8064 18.0846 14.2912 17.5 14.2912Z" fill="#374957"/>
<path d="M16.4304 19.9953H10.0138C9.42915 19.9953 8.94434 19.5105 8.94434 18.9259C8.94434 18.3413 9.42915 17.8564 10.0138 17.8564H16.4304C17.0151 17.8564 17.4999 18.3413 17.4999 18.9259C17.4999 19.5105 17.0151 19.9953 16.4304 19.9953Z" fill="#374957"/>
</svg>
