<svg width="36" height="35" viewBox="0 0 36 35" fill="none" xmlns="http://www.w3.org/2000/svg">
<path d="M29.3065 11.3029C29.3246 11.5557 29.3246 11.8086 29.3246 12.0614C29.3246 19.7728 23.4553 28.658 12.728 28.658C9.42309 28.658 6.35301 27.7008 3.77051 26.0394C4.24007 26.0936 4.69151 26.1116 5.17914 26.1116C7.90606 26.1116 10.4164 25.1906 12.421 23.6195C9.85652 23.5653 7.70744 21.8858 6.967 19.5741C7.32821 19.6283 7.68938 19.6644 8.06866 19.6644C8.59237 19.6644 9.11613 19.5922 9.6037 19.4658C6.93092 18.924 4.92626 16.5763 4.92626 13.7409V13.6687C5.70279 14.1022 6.60583 14.3731 7.56291 14.4091C5.99174 13.3617 4.9624 11.5738 4.9624 9.55114C4.9624 8.46759 5.25129 7.47433 5.75699 6.60747C8.62845 10.1471 12.9447 12.4587 17.7845 12.7115C17.6943 12.2781 17.6401 11.8267 17.6401 11.3752C17.6401 8.16058 20.2406 5.54199 23.4733 5.54199C25.1528 5.54199 26.6697 6.24631 27.7353 7.38405C29.0536 7.13123 30.3177 6.6436 31.4375 5.97542C31.004 7.32991 30.083 8.46765 28.873 9.18997C30.0469 9.06362 31.1846 8.73848 32.232 8.28704C31.4376 9.44279 30.4442 10.4721 29.3065 11.3029Z" fill="#374957"/>
</svg>
