<svg width="36" height="35" viewBox="0 0 36 35" fill="none" xmlns="http://www.w3.org/2000/svg">
<path d="M27.9692 6.98201C25.3073 4.31374 21.7623 2.84619 17.9949 2.84619C10.2188 2.84619 3.89122 9.1738 3.89122 16.9499C3.89122 19.4339 4.53922 21.8608 5.77171 24.0018L3.77051 31.3077L11.248 29.3446C13.3064 30.4691 15.6252 31.06 17.9886 31.06H17.9949C25.7647 31.06 32.232 24.7324 32.232 16.9563C32.232 13.1889 30.6311 9.65028 27.9692 6.98201ZM17.9949 28.6839C15.8857 28.6839 13.821 28.1185 12.0231 27.0512L11.5974 26.7971L7.16302 27.9597L8.34468 23.6333L8.06515 23.1886C6.88984 21.3208 6.2736 19.1671 6.2736 16.9499C6.2736 10.4889 11.5339 5.22857 18.0013 5.22857C21.1333 5.22857 24.0748 6.44835 26.2856 8.66556C28.4965 10.8828 29.856 13.8242 29.8497 16.9563C29.8497 23.4236 24.4559 28.6839 17.9949 28.6839ZM24.4242 19.9041C24.0748 19.7262 22.3404 18.8749 22.0164 18.7605C21.6924 18.6398 21.4573 18.5826 21.2223 18.9384C20.9872 19.2942 20.3138 20.0819 20.1041 20.3234C19.9008 20.5584 19.6912 20.5902 19.3418 20.4123C17.2707 19.3768 15.9111 18.5636 14.5452 16.2193C14.1831 15.5967 14.9074 15.6412 15.5808 14.2943C15.6951 14.0593 15.638 13.856 15.549 13.6781C15.4601 13.5002 14.7549 11.7658 14.4626 11.0606C14.1768 10.3745 13.8845 10.4698 13.6685 10.4571C13.4652 10.4444 13.2302 10.4444 12.9951 10.4444C12.76 10.4444 12.3789 10.5333 12.0548 10.8828C11.7308 11.2385 10.8224 12.0898 10.8224 13.8242C10.8224 15.5586 12.0866 17.2358 12.2581 17.4708C12.436 17.7059 14.7422 21.2636 18.2808 22.7947C20.5171 23.7603 21.3938 23.8429 22.5119 23.6778C23.1917 23.5761 24.5957 22.8264 24.888 22.0006C25.1802 21.1747 25.1802 20.4695 25.0913 20.3234C25.0087 20.1645 24.7736 20.0756 24.4242 19.9041Z" fill="#374957"/>
</svg>
